<svg width="369" height="477" viewBox="0 0 369 477" fill="none" xmlns="http://www.w3.org/2000/svg">
<path d="M369 238.5C369 191.329 355.012 145.218 328.806 105.996C302.599 66.7754 265.35 36.2062 221.77 18.1547C178.19 0.103231 130.235 -4.61986 83.971 4.58271C37.7065 13.7853 -4.79015 36.5002 -38.145 69.855C-71.4998 103.21 -94.2147 145.706 -103.417 191.971C-112.62 238.235 -107.897 286.19 -89.8453 329.77C-71.7938 373.35 -41.2246 410.599 -2.0035 436.806C37.2176 463.012 83.3292 477 130.5 477V384.525C101.619 384.525 73.3865 375.961 49.3728 359.915C25.3591 343.87 6.64264 321.064 -4.40966 294.381C-15.462 267.699 -18.3537 238.338 -12.7193 210.012C-7.08492 181.686 6.82263 155.667 27.2446 135.245C47.6666 114.823 73.6858 100.915 102.012 95.2807C130.338 89.6463 159.699 92.538 186.381 103.59C213.064 114.643 235.87 133.359 251.915 157.373C267.961 181.386 276.525 209.619 276.525 238.5H369Z" fill="url(#paint0_linear_14_21)"/>
<defs>
<linearGradient id="paint0_linear_14_21" x1="130.5" y1="0" x2="130.5" y2="477" gradientUnits="userSpaceOnUse">
<stop stop-color="#300FFF"/>
<stop offset="0.0001" stop-color="#3301EA" stop-opacity="0.932292"/>
<stop offset="1" stop-color="#FF0404" stop-opacity="0.03"/>
</linearGradient>
</defs>
</svg>
